<mxfile host="drawio-plugin" agent="Mozilla/5.0 (X11; Linux x86_64) AppleWebKit/537.36 (KHTML, like Gecko) Chrome/122.0.0.0 Safari/537.36" modified="2024-12-27T22:01:06.224Z" etag="TxAhjS9z6_LwvXwKghPI" version="22.1.22" type="embed">
  <diagram name="Страница — 1" id="8Q_2hmV1M773V3Juzxj-">
    <mxGraphModel dx="1427" dy="1184" grid="1" gridSize="10" guides="1" tooltips="1" connect="1" arrows="1" fold="1" page="1" pageScale="1" pageWidth="1535" pageHeight="1200" math="0" shadow="0">
      <root>
        <mxCell id="0" />
        <mxCell id="1" parent="0" />
        <mxCell id="sqvBPAxTxqeIc18Qz-2o-1" value="Клиентское приложение" style="rounded=1;whiteSpace=wrap;html=1;strokeColor=#B20000;strokeWidth=1.9685;" parent="1" vertex="1">
          <mxGeometry x="107" y="90" width="1080" height="40" as="geometry" />
        </mxCell>
        <mxCell id="sqvBPAxTxqeIc18Qz-2o-4" value="Сервис &quot;User&quot;" style="rounded=1;whiteSpace=wrap;html=1;" parent="1" vertex="1">
          <mxGeometry x="27" y="460" width="240" height="80" as="geometry" />
        </mxCell>
        <mxCell id="sqvBPAxTxqeIc18Qz-2o-6" value="Сервис &quot;Billing&quot;" style="rounded=1;whiteSpace=wrap;html=1;" parent="1" vertex="1">
          <mxGeometry x="427" y="460" width="240" height="80" as="geometry" />
        </mxCell>
        <mxCell id="sqvBPAxTxqeIc18Qz-2o-8" value="Сервис &quot;Adv&quot;" style="rounded=1;whiteSpace=wrap;html=1;" parent="1" vertex="1">
          <mxGeometry x="987" y="460" width="320" height="80" as="geometry" />
        </mxCell>
        <mxCell id="sqvBPAxTxqeIc18Qz-2o-21" value="Redis (хранение данных сессии)" style="rounded=1;whiteSpace=wrap;html=1;strokeColor=#2D7600;strokeWidth=1.9685;" parent="1" vertex="1">
          <mxGeometry x="107" y="1020" width="1120" height="40" as="geometry" />
        </mxCell>
        <mxCell id="sqvBPAxTxqeIc18Qz-2o-22" value="" style="endArrow=classic;html=1;rounded=0;exitX=0.5;exitY=1;exitDx=0;exitDy=0;entryX=0.035;entryY=0.003;entryDx=0;entryDy=0;entryPerimeter=0;fillColor=#60a917;strokeColor=#2D7600;strokeWidth=1.9685;" parent="1" source="sqvBPAxTxqeIc18Qz-2o-4" target="sqvBPAxTxqeIc18Qz-2o-21" edge="1">
          <mxGeometry width="50" height="50" relative="1" as="geometry">
            <mxPoint x="186.8" y="520" as="sourcePoint" />
            <mxPoint x="186.76000000000005" y="740" as="targetPoint" />
          </mxGeometry>
        </mxCell>
        <mxCell id="sqvBPAxTxqeIc18Qz-2o-24" value="" style="endArrow=classic;html=1;rounded=0;exitX=0.037;exitY=0.998;exitDx=0;exitDy=0;exitPerimeter=0;entryX=0.5;entryY=0;entryDx=0;entryDy=0;fillColor=#e51400;strokeColor=#B20000;strokeWidth=1.9685;" parent="1" source="sqvBPAxTxqeIc18Qz-2o-1" target="sqvBPAxTxqeIc18Qz-2o-4" edge="1">
          <mxGeometry width="50" height="50" relative="1" as="geometry">
            <mxPoint x="347" y="470" as="sourcePoint" />
            <mxPoint x="397" y="420" as="targetPoint" />
          </mxGeometry>
        </mxCell>
        <mxCell id="sqvBPAxTxqeIc18Qz-2o-25" value="Регистрация" style="edgeLabel;html=1;align=center;verticalAlign=middle;resizable=0;points=[];rotation=0;" parent="sqvBPAxTxqeIc18Qz-2o-24" vertex="1" connectable="0">
          <mxGeometry x="-0.0013" y="-1" relative="1" as="geometry">
            <mxPoint as="offset" />
          </mxGeometry>
        </mxCell>
        <mxCell id="sqvBPAxTxqeIc18Qz-2o-44" value="" style="endArrow=classic;html=1;rounded=0;exitX=0.406;exitY=1.021;exitDx=0;exitDy=0;exitPerimeter=0;entryX=0.5;entryY=0;entryDx=0;entryDy=0;fillColor=#e51400;strokeColor=#B20000;strokeWidth=1.9685;" parent="1" source="sqvBPAxTxqeIc18Qz-2o-1" target="sqvBPAxTxqeIc18Qz-2o-6" edge="1">
          <mxGeometry width="50" height="50" relative="1" as="geometry">
            <mxPoint x="697" y="510" as="sourcePoint" />
            <mxPoint x="747" y="460" as="targetPoint" />
          </mxGeometry>
        </mxCell>
        <mxCell id="h1WLvVD9vbuX2-LpqRea-6" value="Пополнение счёта, текущее состояние" style="edgeLabel;html=1;align=center;verticalAlign=middle;resizable=0;points=[];" parent="sqvBPAxTxqeIc18Qz-2o-44" vertex="1" connectable="0">
          <mxGeometry x="0.0467" y="-1" relative="1" as="geometry">
            <mxPoint x="2" y="-83" as="offset" />
          </mxGeometry>
        </mxCell>
        <mxCell id="h1WLvVD9vbuX2-LpqRea-1" value="DB" style="strokeWidth=2;html=1;shape=mxgraph.flowchart.database;whiteSpace=wrap;strokeColor=#D79B00;" parent="1" vertex="1">
          <mxGeometry x="37" y="600" width="60" height="60" as="geometry" />
        </mxCell>
        <mxCell id="h1WLvVD9vbuX2-LpqRea-2" value="" style="endArrow=classic;html=1;rounded=0;exitX=0.168;exitY=0.992;exitDx=0;exitDy=0;entryX=0.5;entryY=0;entryDx=0;entryDy=0;entryPerimeter=0;exitPerimeter=0;fillColor=#ffcd28;gradientColor=#ffa500;strokeColor=#d79b00;strokeWidth=1.9685;" parent="1" source="sqvBPAxTxqeIc18Qz-2o-4" target="h1WLvVD9vbuX2-LpqRea-1" edge="1">
          <mxGeometry width="50" height="50" relative="1" as="geometry">
            <mxPoint x="117" y="740" as="sourcePoint" />
            <mxPoint x="167" y="690" as="targetPoint" />
          </mxGeometry>
        </mxCell>
        <mxCell id="h1WLvVD9vbuX2-LpqRea-19" value="" style="endArrow=classic;html=1;rounded=0;exitX=0.169;exitY=0.993;exitDx=0;exitDy=0;entryX=0.321;entryY=-0.008;entryDx=0;entryDy=0;entryPerimeter=0;exitPerimeter=0;fillColor=#60a917;strokeColor=#2D7600;strokeWidth=1.9685;" parent="1" source="sqvBPAxTxqeIc18Qz-2o-6" target="sqvBPAxTxqeIc18Qz-2o-21" edge="1">
          <mxGeometry width="50" height="50" relative="1" as="geometry">
            <mxPoint x="677" y="550" as="sourcePoint" />
            <mxPoint x="727" y="500" as="targetPoint" />
          </mxGeometry>
        </mxCell>
        <mxCell id="h1WLvVD9vbuX2-LpqRea-24" value="DB" style="strokeWidth=2;html=1;shape=mxgraph.flowchart.database;whiteSpace=wrap;strokeColor=#D79B00;" parent="1" vertex="1">
          <mxGeometry x="517" y="590" width="60" height="60" as="geometry" />
        </mxCell>
        <mxCell id="h1WLvVD9vbuX2-LpqRea-25" value="" style="endArrow=classic;html=1;rounded=0;exitX=0.25;exitY=1;exitDx=0;exitDy=0;entryX=0.5;entryY=0;entryDx=0;entryDy=0;entryPerimeter=0;fillColor=#ffcd28;gradientColor=#ffa500;strokeColor=#d79b00;strokeWidth=1.9685;" parent="1" target="h1WLvVD9vbuX2-LpqRea-24" edge="1">
          <mxGeometry width="50" height="50" relative="1" as="geometry">
            <mxPoint x="547" y="540" as="sourcePoint" />
            <mxPoint x="567" y="690" as="targetPoint" />
          </mxGeometry>
        </mxCell>
        <mxCell id="h1WLvVD9vbuX2-LpqRea-27" value="" style="endArrow=classic;html=1;rounded=0;entryX=0.864;entryY=0;entryDx=0;entryDy=0;entryPerimeter=0;fillColor=#0050ef;strokeColor=#006EAF;strokeWidth=1.9685;" parent="1" target="h1WLvVD9vbuX2-LpqRea-7" edge="1">
          <mxGeometry width="50" height="50" relative="1" as="geometry">
            <mxPoint x="1027" y="540" as="sourcePoint" />
            <mxPoint x="887" y="610" as="targetPoint" />
          </mxGeometry>
        </mxCell>
        <mxCell id="h1WLvVD9vbuX2-LpqRea-28" value="Отправка событий с&amp;nbsp;&lt;div&gt;изменением статуса&amp;nbsp;&lt;/div&gt;&lt;div&gt;объявления&lt;/div&gt;" style="edgeLabel;html=1;align=center;verticalAlign=middle;resizable=0;points=[];" parent="h1WLvVD9vbuX2-LpqRea-27" vertex="1" connectable="0">
          <mxGeometry x="0.0019" y="1" relative="1" as="geometry">
            <mxPoint y="20" as="offset" />
          </mxGeometry>
        </mxCell>
        <mxCell id="h1WLvVD9vbuX2-LpqRea-31" value="DB" style="strokeWidth=2;html=1;shape=mxgraph.flowchart.database;whiteSpace=wrap;strokeColor=#D79B00;" parent="1" vertex="1">
          <mxGeometry x="1237" y="600" width="60" height="60" as="geometry" />
        </mxCell>
        <mxCell id="h1WLvVD9vbuX2-LpqRea-32" value="" style="endArrow=classic;html=1;rounded=0;exitX=0.25;exitY=1;exitDx=0;exitDy=0;entryX=0.5;entryY=0;entryDx=0;entryDy=0;entryPerimeter=0;fillColor=#ffcd28;gradientColor=#ffa500;strokeColor=#D79B00;strokeWidth=1.9685;" parent="1" target="h1WLvVD9vbuX2-LpqRea-31" edge="1">
          <mxGeometry width="50" height="50" relative="1" as="geometry">
            <mxPoint x="1267" y="540" as="sourcePoint" />
            <mxPoint x="1287" y="690" as="targetPoint" />
          </mxGeometry>
        </mxCell>
        <mxCell id="h1WLvVD9vbuX2-LpqRea-34" value="Блокировки при создании объявлений" style="endArrow=classic;html=1;rounded=0;exitX=0.667;exitY=0.998;exitDx=0;exitDy=0;exitPerimeter=0;entryX=0.966;entryY=0.032;entryDx=0;entryDy=0;entryPerimeter=0;fillColor=#60a917;strokeColor=#2D7600;strokeWidth=1.9685;" parent="1" target="sqvBPAxTxqeIc18Qz-2o-21" edge="1">
          <mxGeometry width="50" height="50" relative="1" as="geometry">
            <mxPoint x="1187.12" y="539.84" as="sourcePoint" />
            <mxPoint x="1159.92" y="1018.5" as="targetPoint" />
          </mxGeometry>
        </mxCell>
        <mxCell id="h1WLvVD9vbuX2-LpqRea-36" value="Сервис &quot;Notification&quot;" style="rounded=1;whiteSpace=wrap;html=1;" parent="1" vertex="1">
          <mxGeometry x="667" y="820" width="160" height="80" as="geometry" />
        </mxCell>
        <mxCell id="h1WLvVD9vbuX2-LpqRea-37" value="" style="endArrow=classic;html=1;rounded=0;exitX=0.554;exitY=1.013;exitDx=0;exitDy=0;exitPerimeter=0;entryX=0.25;entryY=0;entryDx=0;entryDy=0;fillColor=#e51400;strokeColor=#B20000;strokeWidth=1.9685;" parent="1" source="sqvBPAxTxqeIc18Qz-2o-1" target="h1WLvVD9vbuX2-LpqRea-36" edge="1">
          <mxGeometry width="50" height="50" relative="1" as="geometry">
            <mxPoint x="708.1200000000003" y="299.99999999999994" as="sourcePoint" />
            <mxPoint x="707" y="858.68" as="targetPoint" />
          </mxGeometry>
        </mxCell>
        <mxCell id="h1WLvVD9vbuX2-LpqRea-38" value="Получение оповещений" style="edgeLabel;html=1;align=center;verticalAlign=middle;resizable=0;points=[];" parent="h1WLvVD9vbuX2-LpqRea-37" vertex="1" connectable="0">
          <mxGeometry x="-0.5448" relative="1" as="geometry">
            <mxPoint x="1" y="-118" as="offset" />
          </mxGeometry>
        </mxCell>
        <mxCell id="h1WLvVD9vbuX2-LpqRea-7" value="Kafka" style="rounded=1;whiteSpace=wrap;html=1;fillColor=default;strokeColor=#006EAF;strokeWidth=1.9685;" parent="1" vertex="1">
          <mxGeometry x="267" y="660" width="880" height="40" as="geometry" />
        </mxCell>
        <mxCell id="sqvBPAxTxqeIc18Qz-2o-15" value="" style="endArrow=classic;html=1;rounded=0;entryX=1;entryY=0.5;entryDx=0;entryDy=0;exitX=0;exitY=0.5;exitDx=0;exitDy=0;fillColor=#e51400;strokeColor=#B20000;strokeWidth=1.9685;" parent="1" source="sqvBPAxTxqeIc18Qz-2o-8" target="sqvBPAxTxqeIc18Qz-2o-6" edge="1">
          <mxGeometry width="50" height="50" relative="1" as="geometry">
            <mxPoint x="647" y="520" as="sourcePoint" />
            <mxPoint x="697" y="470" as="targetPoint" />
          </mxGeometry>
        </mxCell>
        <mxCell id="sqvBPAxTxqeIc18Qz-2o-16" value="Списание с баланса&amp;nbsp;&lt;div&gt;при создании оъявлений&lt;/div&gt;" style="edgeLabel;html=1;align=center;verticalAlign=middle;resizable=0;points=[];" parent="sqvBPAxTxqeIc18Qz-2o-15" vertex="1" connectable="0">
          <mxGeometry x="0.0083" relative="1" as="geometry">
            <mxPoint y="-20" as="offset" />
          </mxGeometry>
        </mxCell>
        <mxCell id="h1WLvVD9vbuX2-LpqRea-39" value="" style="endArrow=classic;html=1;rounded=0;entryX=0.591;entryY=0.999;entryDx=0;entryDy=0;entryPerimeter=0;exitX=0.75;exitY=0;exitDx=0;exitDy=0;fillColor=#0050ef;strokeColor=#006EAF;strokeWidth=1.9685;" parent="1" source="h1WLvVD9vbuX2-LpqRea-36" target="h1WLvVD9vbuX2-LpqRea-7" edge="1">
          <mxGeometry width="50" height="50" relative="1" as="geometry">
            <mxPoint x="677" y="770" as="sourcePoint" />
            <mxPoint x="727" y="720" as="targetPoint" />
          </mxGeometry>
        </mxCell>
        <mxCell id="h1WLvVD9vbuX2-LpqRea-40" value="Чтение событий изменения&amp;nbsp;&lt;br&gt;&lt;div&gt;статуса объявления&lt;/div&gt;" style="edgeLabel;html=1;align=center;verticalAlign=middle;resizable=0;points=[];" parent="h1WLvVD9vbuX2-LpqRea-39" vertex="1" connectable="0">
          <mxGeometry x="0.0013" y="-1" relative="1" as="geometry">
            <mxPoint as="offset" />
          </mxGeometry>
        </mxCell>
        <mxCell id="h1WLvVD9vbuX2-LpqRea-41" value="DB" style="strokeWidth=2;html=1;shape=mxgraph.flowchart.database;whiteSpace=wrap;strokeColor=#D79B00;" parent="1" vertex="1">
          <mxGeometry x="757" y="940" width="60" height="60" as="geometry" />
        </mxCell>
        <mxCell id="h1WLvVD9vbuX2-LpqRea-42" value="" style="endArrow=classic;html=1;rounded=0;exitX=0.75;exitY=1;exitDx=0;exitDy=0;entryX=0.5;entryY=0;entryDx=0;entryDy=0;entryPerimeter=0;fillColor=#ffcd28;gradientColor=#ffa500;strokeColor=#d79b00;strokeWidth=1.9685;" parent="1" source="h1WLvVD9vbuX2-LpqRea-36" target="h1WLvVD9vbuX2-LpqRea-41" edge="1">
          <mxGeometry width="50" height="50" relative="1" as="geometry">
            <mxPoint x="787" y="920" as="sourcePoint" />
            <mxPoint x="807" y="1070" as="targetPoint" />
          </mxGeometry>
        </mxCell>
        <mxCell id="h1WLvVD9vbuX2-LpqRea-54" value="" style="endArrow=classic;html=1;rounded=0;entryX=0.5;entryY=0;entryDx=0;entryDy=0;exitX=0.963;exitY=1.002;exitDx=0;exitDy=0;exitPerimeter=0;fillColor=#e51400;strokeColor=#B20000;strokeWidth=1.9685;" parent="1" source="sqvBPAxTxqeIc18Qz-2o-1" target="sqvBPAxTxqeIc18Qz-2o-8" edge="1">
          <mxGeometry width="50" height="50" relative="1" as="geometry">
            <mxPoint x="1147" y="301" as="sourcePoint" />
            <mxPoint x="1047" y="550" as="targetPoint" />
          </mxGeometry>
        </mxCell>
        <mxCell id="h1WLvVD9vbuX2-LpqRea-55" value="Создание объявлений" style="edgeLabel;html=1;align=center;verticalAlign=middle;resizable=0;points=[];" parent="h1WLvVD9vbuX2-LpqRea-54" vertex="1" connectable="0">
          <mxGeometry x="0.0102" relative="1" as="geometry">
            <mxPoint y="-117" as="offset" />
          </mxGeometry>
        </mxCell>
        <mxCell id="h1WLvVD9vbuX2-LpqRea-56" value="" style="endArrow=classic;html=1;rounded=0;exitX=1;exitY=0.5;exitDx=0;exitDy=0;entryX=0.046;entryY=0.001;entryDx=0;entryDy=0;entryPerimeter=0;fillColor=#0050ef;strokeColor=#006EAF;strokeWidth=1.9685;" parent="1" source="sqvBPAxTxqeIc18Qz-2o-4" target="h1WLvVD9vbuX2-LpqRea-7" edge="1">
          <mxGeometry width="50" height="50" relative="1" as="geometry">
            <mxPoint x="317" y="680" as="sourcePoint" />
            <mxPoint x="367" y="630" as="targetPoint" />
            <Array as="points">
              <mxPoint x="307" y="500" />
            </Array>
          </mxGeometry>
        </mxCell>
        <mxCell id="h1WLvVD9vbuX2-LpqRea-57" value="" style="endArrow=classic;html=1;rounded=0;exitX=0;exitY=0.5;exitDx=0;exitDy=0;entryX=0.135;entryY=-0.01;entryDx=0;entryDy=0;entryPerimeter=0;fillColor=#0050ef;strokeColor=#006EAF;strokeWidth=1.9685;" parent="1" source="sqvBPAxTxqeIc18Qz-2o-6" target="h1WLvVD9vbuX2-LpqRea-7" edge="1">
          <mxGeometry width="50" height="50" relative="1" as="geometry">
            <mxPoint x="337" y="590" as="sourcePoint" />
            <mxPoint x="387" y="540" as="targetPoint" />
            <Array as="points">
              <mxPoint x="387" y="500" />
            </Array>
          </mxGeometry>
        </mxCell>
        <mxCell id="h1WLvVD9vbuX2-LpqRea-58" value="Создание счёта пользователя&lt;div&gt;после успешной регистрации&lt;/div&gt;" style="text;html=1;align=center;verticalAlign=middle;resizable=0;points=[];autosize=1;strokeColor=none;fillColor=default;" parent="1" vertex="1">
          <mxGeometry x="252" y="553" width="190" height="40" as="geometry" />
        </mxCell>
        <mxCell id="h1WLvVD9vbuX2-LpqRea-62" value="" style="endArrow=none;html=1;rounded=0;strokeColor=#B20000;strokeWidth=3.1496;" parent="1" edge="1">
          <mxGeometry width="50" height="50" relative="1" as="geometry">
            <mxPoint x="1347" y="300" as="sourcePoint" />
            <mxPoint x="1387" y="300" as="targetPoint" />
          </mxGeometry>
        </mxCell>
        <mxCell id="h1WLvVD9vbuX2-LpqRea-63" value="" style="endArrow=none;html=1;rounded=0;strokeWidth=3.1496;strokeColor=#006EAF;" parent="1" edge="1">
          <mxGeometry width="50" height="50" relative="1" as="geometry">
            <mxPoint x="1347" y="339.83" as="sourcePoint" />
            <mxPoint x="1387" y="339.83" as="targetPoint" />
          </mxGeometry>
        </mxCell>
        <mxCell id="h1WLvVD9vbuX2-LpqRea-64" value="" style="endArrow=none;html=1;rounded=0;strokeWidth=3.1496;strokeColor=#2D7600;" parent="1" edge="1">
          <mxGeometry width="50" height="50" relative="1" as="geometry">
            <mxPoint x="1347" y="380" as="sourcePoint" />
            <mxPoint x="1387" y="380" as="targetPoint" />
          </mxGeometry>
        </mxCell>
        <mxCell id="h1WLvVD9vbuX2-LpqRea-65" value="" style="endArrow=none;html=1;rounded=0;strokeWidth=3.1496;strokeColor=#D79B00;" parent="1" edge="1">
          <mxGeometry width="50" height="50" relative="1" as="geometry">
            <mxPoint x="1347" y="420" as="sourcePoint" />
            <mxPoint x="1387" y="420" as="targetPoint" />
          </mxGeometry>
        </mxCell>
        <mxCell id="h1WLvVD9vbuX2-LpqRea-66" value="HTTP запросы" style="text;html=1;align=center;verticalAlign=middle;resizable=0;points=[];autosize=1;strokeColor=none;fillColor=none;" parent="1" vertex="1">
          <mxGeometry x="1397" y="285" width="100" height="30" as="geometry" />
        </mxCell>
        <mxCell id="h1WLvVD9vbuX2-LpqRea-67" value="Запросы к Kafka" style="text;html=1;align=center;verticalAlign=middle;resizable=0;points=[];autosize=1;strokeColor=none;fillColor=none;" parent="1" vertex="1">
          <mxGeometry x="1398" y="325" width="110" height="30" as="geometry" />
        </mxCell>
        <mxCell id="h1WLvVD9vbuX2-LpqRea-68" value="Запросы к Redis" style="text;html=1;align=center;verticalAlign=middle;resizable=0;points=[];autosize=1;strokeColor=none;fillColor=none;" parent="1" vertex="1">
          <mxGeometry x="1397" y="365" width="110" height="30" as="geometry" />
        </mxCell>
        <mxCell id="h1WLvVD9vbuX2-LpqRea-69" value="Запросы к DB" style="text;html=1;align=center;verticalAlign=middle;resizable=0;points=[];autosize=1;strokeColor=none;fillColor=none;" parent="1" vertex="1">
          <mxGeometry x="1396" y="406" width="100" height="30" as="geometry" />
        </mxCell>
        <mxCell id="3" value="" style="endArrow=classic;html=1;rounded=0;fillColor=#60a917;strokeColor=#2D7600;strokeWidth=1.9685;" parent="1" edge="1">
          <mxGeometry width="50" height="50" relative="1" as="geometry">
            <mxPoint x="707" y="900" as="sourcePoint" />
            <mxPoint x="706.5" y="1020" as="targetPoint" />
          </mxGeometry>
        </mxCell>
        <mxCell id="4" value="Сервис &quot;Auth&quot;" style="rounded=1;whiteSpace=wrap;html=1;" parent="1" vertex="1">
          <mxGeometry x="487" y="265" width="700" height="60" as="geometry" />
        </mxCell>
        <mxCell id="5" value="Авторизация и аутентификация" style="endArrow=classic;html=1;rounded=0;exitX=0.753;exitY=0.993;exitDx=0;exitDy=0;exitPerimeter=0;entryX=0.619;entryY=-0.006;entryDx=0;entryDy=0;entryPerimeter=0;strokeColor=#B20000;strokeWidth=2;" parent="1" source="sqvBPAxTxqeIc18Qz-2o-1" target="4" edge="1">
          <mxGeometry width="50" height="50" relative="1" as="geometry">
            <mxPoint x="917" y="130" as="sourcePoint" />
            <mxPoint x="920" y="260" as="targetPoint" />
          </mxGeometry>
        </mxCell>
        <mxCell id="7" value="" style="endArrow=classic;html=1;rounded=0;exitX=0.867;exitY=-0.06;exitDx=0;exitDy=0;exitPerimeter=0;entryX=0;entryY=0.75;entryDx=0;entryDy=0;strokeWidth=2;strokeColor=#B20000;" parent="1" source="sqvBPAxTxqeIc18Qz-2o-4" target="4" edge="1">
          <mxGeometry width="50" height="50" relative="1" as="geometry">
            <mxPoint x="720" y="90" as="sourcePoint" />
            <mxPoint x="770" y="40" as="targetPoint" />
          </mxGeometry>
        </mxCell>
        <mxCell id="8" value="" style="endArrow=classic;html=1;rounded=0;exitX=0.813;exitY=-0.001;exitDx=0;exitDy=0;exitPerimeter=0;entryX=0.25;entryY=1;entryDx=0;entryDy=0;strokeWidth=2;strokeColor=#B20000;" parent="1" source="sqvBPAxTxqeIc18Qz-2o-6" target="4" edge="1">
          <mxGeometry width="50" height="50" relative="1" as="geometry">
            <mxPoint x="720" y="270" as="sourcePoint" />
            <mxPoint x="770" y="220" as="targetPoint" />
          </mxGeometry>
        </mxCell>
        <mxCell id="9" value="" style="endArrow=classic;html=1;rounded=0;exitX=0.25;exitY=0;exitDx=0;exitDy=0;entryX=0.75;entryY=1;entryDx=0;entryDy=0;strokeWidth=2;strokeColor=#B20000;" parent="1" source="sqvBPAxTxqeIc18Qz-2o-8" target="4" edge="1">
          <mxGeometry width="50" height="50" relative="1" as="geometry">
            <mxPoint x="720" y="270" as="sourcePoint" />
            <mxPoint x="770" y="220" as="targetPoint" />
          </mxGeometry>
        </mxCell>
        <mxCell id="10" value="" style="endArrow=classic;html=1;rounded=0;exitX=0.5;exitY=0;exitDx=0;exitDy=0;strokeWidth=2;strokeColor=#B20000;" parent="1" source="h1WLvVD9vbuX2-LpqRea-36" target="4" edge="1">
          <mxGeometry width="50" height="50" relative="1" as="geometry">
            <mxPoint x="720" y="450" as="sourcePoint" />
            <mxPoint x="770" y="400" as="targetPoint" />
          </mxGeometry>
        </mxCell>
        <mxCell id="11" value="Блокировки при создании объявлений" style="endArrow=classic;html=1;rounded=0;exitX=0.631;exitY=1.033;exitDx=0;exitDy=0;exitPerimeter=0;entryX=0.966;entryY=0.032;entryDx=0;entryDy=0;entryPerimeter=0;fillColor=#60a917;strokeColor=#2D7600;strokeWidth=1.9685;" edge="1" parent="1" source="4">
          <mxGeometry width="50" height="50" relative="1" as="geometry">
            <mxPoint x="929.9999999999999" y="540" as="sourcePoint" />
            <mxPoint x="931.88" y="1021.16" as="targetPoint" />
          </mxGeometry>
        </mxCell>
      </root>
    </mxGraphModel>
  </diagram>
</mxfile>
